<svg width="64" height="64" viewBox="0 0 64 64" fill="none" xmlns="http://www.w3.org/2000/svg">
<path opacity="0.3" d="M24.5 44.9999C25.5 45.5999 25.8 46.7999 25.2 47.6999L20.7 55.4999C20.1 56.4999 18.9 56.7999 18 56.1999C17 55.5999 16.7 54.3999 17.3 53.4999L21.8 45.6999C22.3 44.7999 23.5 44.3999 24.5 44.9999Z" fill="#167DFF"/>
<path opacity="0.9" d="M46 7.80004C47 8.40004 47.3 9.60004 46.7 10.5L42.2 18.3C41.6 19.3 40.4 19.6 39.5 19C38.5 18.4 38.2 17.2 38.8 16.3L43.3 8.50004C43.8 7.50004 45 7.20004 46 7.80004Z" fill="#167DFF"/>
<path opacity="0.2" d="M18.9999 39.5C19.5999 40.5 19.1999 41.7 18.2999 42.2L10.4999 46.7C9.49994 47.3 8.29994 46.9 7.79994 46C7.19994 45 7.59994 43.8 8.49994 43.3L16.2999 38.8C17.1999 38.2 18.4999 38.5 18.9999 39.5Z" fill="#167DFF"/>
<path opacity="0.8" d="M56.2001 18C56.8001 19 56.4001 20.2 55.5001 20.7L47.7001 25.2C46.7001 25.8 45.5001 25.4 45.0001 24.5C44.4001 23.5 44.8001 22.3 45.7001 21.8L53.5001 17.3C54.5001 16.7 55.7001 17 56.2001 18Z" fill="#167DFF"/>
<path opacity="0.15" d="M17 32C17 33.1 16.1 34 15 34H6C4.9 34 4 33.1 4 32C4 30.9 4.9 30 6 30H15C16.1 30 17 30.9 17 32Z" fill="#167DFF"/>
<path opacity="0.7" d="M60 32C60 33.1 59.1 34 58 34H49C47.9 34 47 33.1 47 32C47 30.9 47.9 30 49 30H58C59.1 30 60 30.9 60 32Z" fill="#167DFF"/>
<path opacity="0.1" d="M19 24.5C18.4 25.5 17.2 25.8 16.3 25.2L8.50004 20.7C7.50004 20.1 7.20004 18.9 7.80004 18C8.40004 17 9.60004 16.7 10.5 17.3L18.3 21.8C19.2 22.3 19.6 23.5 19 24.5Z" fill="#167DFF"/>
<path opacity="0.6" d="M56.2002 46C55.6002 47 54.4002 47.3 53.5002 46.7L45.7002 42.2C44.7002 41.6 44.4002 40.4 45.0002 39.5C45.6002 38.5 46.8002 38.2 47.7002 38.8L55.5002 43.3C56.5002 43.8 56.8002 45 56.2002 46Z" fill="#167DFF"/>
<path opacity="0.05" d="M24.4999 18.9999C23.4999 19.5999 22.2999 19.1999 21.7999 18.2999L17.2999 10.4999C16.6999 9.49994 17.0999 8.29994 17.9999 7.79994C18.9999 7.19994 20.1999 7.59994 20.6999 8.49994L25.1999 16.2999C25.7999 17.1999 25.4999 18.4999 24.4999 18.9999Z" fill="#167DFF"/>
<path opacity="0.5" d="M45.9999 56.1999C44.9999 56.7999 43.7999 56.3999 43.2999 55.4999L38.7999 47.6999C38.1999 46.6999 38.5999 45.4999 39.4999 44.9999C40.4999 44.3999 41.6999 44.7999 42.1999 45.6999L46.6999 53.4999C47.2999 54.4999 46.9999 55.6999 45.9999 56.1999Z" fill="#167DFF"/>
<path d="M32 17C30.9 17 30 16.1 30 15V6C30 4.9 30.9 4 32 4C33.1 4 34 4.9 34 6V15C34 16.1 33.1 17 32 17Z" fill="#167DFF"/>
<path opacity="0.4" d="M32 60C30.9 60 30 59.1 30 58V49C30 47.9 30.9 47 32 47C33.1 47 34 47.9 34 49V58C34 59.1 33.1 60 32 60Z" fill="#167DFF"/>
</svg>
