<svg viewBox="0 0 32 32" fill="none" xmlns="http://www.w3.org/2000/svg">
    <circle cx="16" cy="16" r="16" fill="#FFFFFF" fill-opacity="0.14"/>
    <path
            d="M14 10.5C14.2761 10.5 14.5 10.7239 14.5 11V13.5H17.5V11C17.5 10.7239 17.7239 10.5 18 10.5C18.2761 10.5 18.5 10.7239 18.5 11V13.5H20.5C20.7761 13.5 21 13.7239 21 14C21 14.2761 20.7761 14.5 20.5 14.5H18.5V17.5H20.5C20.7761 17.5 21 17.7239 21 18C21 18.2761 20.7761 18.5 20.5 18.5H18.5V21C18.5 21.2761 18.2761 21.5 18 21.5C17.7239 21.5 17.5 21.2761 17.5 21V18.5H14.5V21C14.5 21.2761 14.2761 21.5 14 21.5C13.7239 21.5 13.5 21.2761 13.5 21V18.5H11.5C11.2239 18.5 11 18.2761 11 18C11 17.7239 11.2239 17.5 11.5 17.5H13.5V14.5H11.5C11.2239 14.5 11 14.2761 11 14C11 13.7239 11.2239 13.5 11.5 13.5H13.5V11C13.5 10.7239 13.7239 10.5 14 10.5ZM14.5 14.5V17.5H17.5V14.5H14.5Z"
            fill="#ffffff"/>
</svg>
