<svg width="24" height="24" viewBox="0 0 24 24" fill="none" xmlns="http://www.w3.org/2000/svg">
<path d="M11.5 10H12.5V16H11.5V10Z" fill="#FD7823"/>
<path d="M12.5 17H11.5V18H12.5V17Z" fill="#FD7823"/>
<path d="M13.4638 4.85C12.8132 3.71667 11.1868 3.71667 10.5362 4.85L2.72898 18.45C2.07838 19.5833 2.89163 21 4.19283 21H19.8072C21.1084 21 21.9216 19.5833 21.271 18.45L13.4638 4.85ZM20.4038 18.9479C20.6766 19.4231 20.3298 20 19.8072 20H4.19283C3.67019 20 3.32342 19.4231 3.59624 18.9479L11.4034 5.34786C11.6697 4.88405 12.3303 4.88405 12.5966 5.34786L20.4038 18.9479Z" fill="#FD7823"/>
</svg>
